<?xml version="1.0" encoding="UTF-8" standalone="no"?>
<!-- Generator: Adobe Illustrator 16.0.0, SVG Export Plug-In . SVG Version: 6.00 Build 0)  -->

<svg
   xmlns:dc="http://purl.org/dc/elements/1.1/"
   xmlns:cc="http://creativecommons.org/ns#"
   xmlns:rdf="http://www.w3.org/1999/02/22-rdf-syntax-ns#"
   xmlns:svg="http://www.w3.org/2000/svg"
   xmlns="http://www.w3.org/2000/svg"
   xmlns:sodipodi="http://sodipodi.sourceforge.net/DTD/sodipodi-0.dtd"
   xmlns:inkscape="http://www.inkscape.org/namespaces/inkscape"
   version="1.1"
   id="Capa_1"
   x="0px"
   y="0px"
   width="33.627px"
   height="33.628px"
   viewBox="0 0 33.627 33.628"
   style="enable-background:new 0 0 33.627 33.628;"
   xml:space="preserve"
   inkscape:version="0.91 r13725"
   sodipodi:docname="customize.svg"><metadata
     id="metadata41"><rdf:RDF><cc:Work
         rdf:about=""><dc:format>image/svg+xml</dc:format><dc:type
           rdf:resource="http://purl.org/dc/dcmitype/StillImage" /></cc:Work></rdf:RDF></metadata><defs
     id="defs39" /><sodipodi:namedview
     pagecolor="#ffffff"
     bordercolor="#666666"
     borderopacity="1"
     objecttolerance="10"
     gridtolerance="10"
     guidetolerance="10"
     inkscape:pageopacity="0"
     inkscape:pageshadow="2"
     inkscape:window-width="720"
     inkscape:window-height="480"
     id="namedview37"
     showgrid="false"
     inkscape:zoom="7.0179616"
     inkscape:cx="16.813499"
     inkscape:cy="16.813999"
     inkscape:window-x="0"
     inkscape:window-y="23"
     inkscape:window-maximized="0"
     inkscape:current-layer="Capa_1" /><g
     id="g3"
     style="fill:#7b1fa2;fill-opacity:1"><path
       d="M27.131,8.383c0-2.092-1.701-3.794-3.794-3.794s-3.793,1.702-3.793,3.794c0,0.99,0.39,1.885,1.013,2.561   c-0.474,2.004-1.639,2.393-4.167,3.029c-1.279,0.322-2.753,0.7-4.099,1.501V7.003c1.072-0.671,1.793-1.854,1.793-3.209   C14.084,1.702,12.382,0,10.292,0C8.199,0,6.497,1.702,6.497,3.794c0,1.356,0.722,2.539,1.795,3.21v19.62   c-1.073,0.671-1.795,1.854-1.795,3.21c0,2.092,1.702,3.794,3.795,3.794c2.092,0,3.793-1.702,3.793-3.794   c0-1.355-0.722-2.539-1.793-3.209v-3.846c0.496-3.768,2.321-4.232,5.075-4.926c2.527-0.637,5.955-1.513,7.048-5.852   C25.981,11.535,27.131,10.099,27.131,8.383z M10.292,2.002c0.988,0,1.793,0.805,1.793,1.794c0,0.989-0.806,1.793-1.793,1.793   c-0.989,0-1.795-0.805-1.795-1.793C8.498,2.806,9.302,2.002,10.292,2.002z M10.292,31.627c-0.989,0-1.795-0.807-1.795-1.794   c0-0.989,0.806-1.793,1.795-1.793c0.988,0,1.793,0.806,1.793,1.793C12.085,30.824,11.28,31.627,10.292,31.627z M23.337,10.177   c-0.989,0-1.793-0.805-1.793-1.793c0-0.989,0.806-1.794,1.793-1.794c0.988,0,1.794,0.805,1.794,1.794   C25.131,9.373,24.327,10.177,23.337,10.177z"
       id="path5"
       style="fill:#7b1fa2;fill-opacity:1" /></g><g
     id="g7"
     style="fill:#7b1fa2;fill-opacity:1" /><g
     id="g9"
     style="fill:#7b1fa2;fill-opacity:1" /><g
     id="g11"
     style="fill:#7b1fa2;fill-opacity:1" /><g
     id="g13"
     style="fill:#7b1fa2;fill-opacity:1" /><g
     id="g15"
     style="fill:#7b1fa2;fill-opacity:1" /><g
     id="g17"
     style="fill:#7b1fa2;fill-opacity:1" /><g
     id="g19"
     style="fill:#7b1fa2;fill-opacity:1" /><g
     id="g21"
     style="fill:#7b1fa2;fill-opacity:1" /><g
     id="g23"
     style="fill:#7b1fa2;fill-opacity:1" /><g
     id="g25"
     style="fill:#7b1fa2;fill-opacity:1" /><g
     id="g27"
     style="fill:#7b1fa2;fill-opacity:1" /><g
     id="g29"
     style="fill:#7b1fa2;fill-opacity:1" /><g
     id="g31"
     style="fill:#7b1fa2;fill-opacity:1" /><g
     id="g33"
     style="fill:#7b1fa2;fill-opacity:1" /><g
     id="g35"
     style="fill:#7b1fa2;fill-opacity:1" /></svg>